<svg xmlns="http://www.w3.org/2000/svg" version="1.2" viewBox="44.9 0 198.2 512">
	<title>barber-pole-cropped-svg</title>
	<style>
		.s0 { fill: #000000 } 
		.s1 { fill: #ffc853 } 
		.s2 { fill: #f8f8f8 } 
		.s3 { fill: #006df0 } 
		.s4 { fill: #ed593b } 
	</style>
	<g id="#000000ff">
		<path id="Layer" fill-rule="evenodd" class="s0" d="m141.7 0h3.7c26.9 0.7 53.1 15.7 66.5 39.2q1.7 3.3 3.5 6.5c9.2 0 18.5 0 27.7 0q0 22.9 0 45.7c-6.8 0.1-13.6-0.1-20.4 0.1q0.1 164.5 0 329c6.8 0.2 13.6 0 20.4 0.1q0 22.8 0 45.7c-9.2 0-18.5-0.1-27.6 0-5.8 11.6-13.9 22.2-24.5 29.8-13 10-29.2 15.2-45.5 15.9h-3.6c-16.1-0.8-32.1-6-44.9-15.9-10.6-7.6-18.7-18.2-24.4-29.8-9.2-0.1-18.4 0-27.7 0q0-22.9 0-45.7c6.8-0.1 13.6 0 20.4-0.1q0-164.5 0-329c-6.8-0.1-13.6 0-20.4-0.1q0-22.8 0-45.7c9.2 0 18.4 0 27.6 0 2.8-4.9 5.2-9.9 8.8-14.2 14.1-19 37-30.5 60.4-31.5zm-11.7 16.9c-16.6 3.7-31.2 14.5-40.2 28.8q54.2 0 108.4 0c-6.4-10.1-15.4-18.5-26.1-23.8-12.9-6.4-28.1-8.2-42.1-5zm-69.8 44.2c0.1 5 0.1 10 0.1 15.1q83.7 0 167.4 0c0-5.1 0-10.1 0.1-15.1q-83.8 0-167.6 0zm127.3 30.5c-25.9 9.5-52.1 18.6-78.1 28-11.8 4.2-21.6 13.7-26 25.4-3.8 9.3-2.8 19.4-2.9 29.1 4.2-4.4 8.9-8.4 14.2-11.4 5.8-3.4 12.2-5.3 18.5-7.5 22.3-8 44.7-16 67-24 16.1-6.1 27.3-22.6 27.4-39.8-6.7 0.2-13.4-0.3-20.1 0.2zm-107-0.2c0 9.9 0 19.8 0 29.6 6.4-6.8 14.3-12.2 23.1-15.5 13-4.8 26.1-9.2 39.1-14-20.7-0.1-41.5-0.1-62.2-0.1zm104.3 54.3c-22.9 8.2-45.8 16.4-68.7 24.6-5.7 2-11.5 4-16.5 7.4-10.2 6.8-17.2 18.1-18.7 30.3-0.7 6.3-0.3 12.8-0.4 19.1 6.4-6.8 14.3-12.3 23.2-15.5 25-9 50-17.8 75-26.9 12.3-4.3 22.3-14.4 26.4-26.7 3.2-8.8 2.3-18.3 2.4-27.4-6.5 6.5-14.1 12-22.7 15.1zm10.1 48.2c-6.3 3.9-13.5 6.1-20.4 8.6q-32.3 11.5-64.6 23c-12.6 4.4-23 14.8-27.1 27.5-3.1 8.7-2.2 18.2-2.3 27.2 4.2-4.4 9-8.4 14.3-11.4 5.6-3.3 11.8-5.1 17.9-7.3 22-8 44.1-15.7 66.2-23.7 13.2-4.7 23.7-16.2 27.1-29.8 2.1-8 1.4-16.4 1.5-24.5-3.8 3.9-7.9 7.5-12.6 10.4zm-10.7 58.2c-22.7 8.1-45.4 16.2-68.1 24.3-5.4 1.9-10.9 3.7-15.7 6.9-10.6 6.7-17.9 18.2-19.4 30.7-0.8 6.4-0.4 12.8-0.5 19.2 4.2-4.4 9-8.3 14.3-11.3 5.7-3.4 12.1-5.3 18.2-7.5 22-7.9 44-15.7 65.9-23.6 11.9-4.3 21.7-14 25.9-25.9 3.5-9 2.6-18.8 2.7-28.2-6.6 6.7-14.4 12.2-23.3 15.4zm0 53c-21.7 7.8-43.4 15.5-65.1 23.3-4.8 1.7-9.6 3.3-14.2 5.4-12.9 6.1-22.2 19-23.9 33.2-0.8 6.4-0.4 12.9-0.5 19.4 4.4-4.7 9.4-8.8 15.1-11.9 6-3.4 12.7-5.3 19.2-7.6 21.3-7.7 42.8-15.3 64.1-23 12.9-4.6 23.2-15.6 26.9-28.8 2.4-8.3 1.6-17 1.7-25.6-6.4 7-14.4 12.4-23.3 15.6zm-0.2 53.2c-22.5 8.1-45.1 16.1-67.6 24.1-4.8 1.8-9.7 3.2-14.1 5.8-11.7 6.6-20 19-21.4 32.4 10-0.1 20.1 0 30.1 0 1.3 0 2.6-0.3 3.9-0.7 21.3-7.7 42.6-15.2 63.9-22.9 12.9-4.6 23.3-15.7 27-28.9 2.4-8.3 1.5-17 1.7-25.4-6.5 6.9-14.5 12.4-23.5 15.6zm1.5 52.4c-9.1 3.5-18.2 6.5-27.3 9.9q24.7 0 49.3 0 0-12.5 0-25c-6.2 6.5-13.6 11.9-22 15.1zm-125.2 25.1c-0.1 5.1 0 10.1-0.1 15.1q83.8 0 167.6 0c-0.1-5-0.1-10-0.1-15.1q-83.7 0-167.4 0zm29.5 30.5c6.5 10.3 15.8 18.8 26.8 24.1 15 7.3 32.9 8.3 48.5 2.6 13.7-4.8 25.4-14.5 33.1-26.7q-54.2 0-108.4 0z"/>
	</g>
	<g id="#ffc853ff">
		<path id="Layer" class="s1" d="m130 16.9c14-3.2 29.2-1.4 42.1 5.1 10.7 5.2 19.7 13.6 26.1 23.7q-54.2 0-108.4 0c9-14.3 23.6-25.1 40.2-28.8z"/>
		<path id="Layer" class="s1" d="m89.8 466.3q54.2 0 108.4 0c-7.7 12.2-19.4 21.9-33.1 26.7-15.6 5.7-33.5 4.7-48.5-2.6-11-5.3-20.3-13.8-26.8-24.1z"/>
	</g>
	<g id="#f8f8f8ff">
		<path id="Layer" class="s2" d="m60.2 61.1q83.8 0 167.6 0c-0.1 5-0.1 10-0.1 15.1q-83.7 0-167.4 0c0-5.1 0-10.1-0.1-15.1z"/>
		<path id="Layer" class="s2" d="m187.5 91.6c6.7-0.5 13.4 0 20.1-0.2-0.1 17.2-11.3 33.7-27.4 39.8-22.3 8-44.7 16-67 24-6.3 2.2-12.7 4.2-18.5 7.6-5.3 2.9-10 6.9-14.2 11.3 0.1-9.7-0.9-19.8 2.9-29.1 4.4-11.7 14.2-21.2 26-25.4 26-9.4 52.2-18.5 78.1-28z"/>
		<path id="Layer" class="s2" d="m194.9 193.9c4.7-2.9 8.8-6.5 12.6-10.4-0.1 8.2 0.6 16.5-1.5 24.5-3.4 13.6-13.9 25.1-27.1 29.8-22.1 8-44.2 15.8-66.2 23.7-6.1 2.2-12.3 4-17.9 7.3-5.3 3-10.1 7-14.3 11.4 0.1-9-0.8-18.5 2.3-27.2 4.1-12.7 14.5-23.1 27.1-27.5q32.3-11.5 64.6-23c6.9-2.5 14.1-4.7 20.4-8.6z"/>
		<path id="Layer" class="s2" d="m184.2 305.1c8.9-3.2 16.9-8.6 23.3-15.6-0.1 8.6 0.7 17.3-1.7 25.6-3.7 13.2-14 24.2-26.9 28.8-21.3 7.7-42.8 15.3-64.1 22.9-6.5 2.4-13.2 4.3-19.2 7.7-5.7 3.1-10.7 7.2-15.1 11.9 0.1-6.5-0.3-13 0.5-19.4 1.7-14.2 11-27.1 23.9-33.2 4.6-2.1 9.4-3.7 14.2-5.4 21.7-7.8 43.4-15.5 65.1-23.3z"/>
		<path id="Layer" class="s2" d="m185.5 410.7c8.4-3.2 15.8-8.6 22-15.1q0 12.5 0 25-24.6 0-49.3 0c9.1-3.4 18.2-6.4 27.3-9.9z"/>
		<path id="Layer" class="s2" d="m60.3 435.8q83.7 0 167.4 0c0 5.1 0 10.1 0.1 15.1q-83.8 0-167.6 0c0.1-5 0-10 0.1-15.1z"/>
	</g>
	<g id="#006df0ff">
		<path id="Layer" class="s3" d="m80.5 91.5c20.8-0.1 41.5-0.1 62.2 0-13 4.8-26.1 9.2-39.1 14-8.8 3.3-16.7 8.7-23.1 15.5 0-9.8 0-19.7 0-29.5z"/>
		<path id="Layer" class="s3" d="m184.2 252.1c8.9-3.2 16.7-8.7 23.3-15.4-0.1 9.4 0.8 19.2-2.7 28.2-4.2 11.9-14 21.6-25.9 25.9-21.9 8-43.9 15.7-65.9 23.6-6.1 2.2-12.5 4.1-18.2 7.5-5.3 3-10.1 6.9-14.3 11.4 0.1-6.5-0.3-12.9 0.5-19.3 1.5-12.4 8.9-24 19.4-30.7 4.8-3.2 10.3-5 15.7-6.9 22.7-8.1 45.4-16.2 68.1-24.3z"/>
	</g>
	<g id="#ed593bff">
		<path id="Layer" class="s4" d="m184.8 145.7c8.6-3.1 16.2-8.6 22.7-15.1-0.1 9.2 0.8 18.6-2.4 27.4-4.1 12.3-14.1 22.4-26.4 26.7-25 9.1-50 17.9-75 26.9-8.9 3.2-16.8 8.7-23.2 15.6 0.1-6.4-0.3-12.9 0.4-19.2 1.5-12.2 8.5-23.5 18.7-30.3 5-3.4 10.8-5.4 16.5-7.4 22.9-8.2 45.8-16.3 68.6-24.6z"/>
		<path id="Layer" class="s4" d="m184 358.3c9-3.2 17-8.7 23.5-15.6-0.1 8.4 0.7 17.1-1.7 25.4-3.7 13.2-14.1 24.3-27 28.9-21.3 7.7-42.6 15.2-63.9 22.9-1.2 0.4-2.6 0.7-3.8 0.7-10.1 0-20.2-0.1-30.2 0 1.4-13.4 9.7-25.8 21.4-32.4 4.4-2.6 9.3-4 14.1-5.8 22.5-8 45.1-16 67.6-24.1z"/>
	</g>
</svg>