<svg xmlns="http://www.w3.org/2000/svg" version="1.2" viewBox="646 299 504.6 26">
	<title>decorative-lines-with-background</title>
	<style>
		.s0 { fill: #d9d4d4 } 
	</style>
	<g id="line-8">
		<g id="&lt;Group&gt;">
			<g id="&lt;Group&gt;">
				<g id="&lt;Group&gt;">
					<g id="&lt;Group&gt;">
						<path id="&lt;Path&gt;" class="s0" d="m904.7 305.5l-6.4 6.5-6.5-6.5 6.5-6.5z"/>
						<path id="&lt;Path&gt;" class="s0" d="m904.7 318.5l-6.4 6.5-6.5-6.5 6.5-6.5z"/>
					</g>
					<g id="&lt;Group&gt;">
						<path id="&lt;Path&gt;" class="s0" d="m917.7 305.5l-6.5 6.5-6.5-6.5 6.5-6.5z"/>
						<path id="&lt;Path&gt;" class="s0" d="m917.7 318.5l-6.5 6.5-6.5-6.5 6.5-6.5z"/>
					</g>
					<g id="&lt;Group&gt;">
						<path id="&lt;Path&gt;" class="s0" d="m891.8 305.5l-6.5 6.5-6.5-6.5 6.5-6.5z"/>
						<path id="&lt;Path&gt;" class="s0" d="m891.8 318.5l-6.5 6.5-6.5-6.5 6.5-6.5z"/>
					</g>
				</g>
				<g id="&lt;Group&gt;">
					<path id="&lt;Path&gt;" class="s0" d="m655.4 311.3q0.4 0 0.8 0c6.3-0.1 12.6 0 18.9 0q19.9 0 39.8 0 27.9 0 55.7 0 32.9 0 65.8 0 35.2 0 70.3 0 35 0 70 0 31.9 0 63.9 0 26 0 52.1 0 17.7 0 35.4 0 6.5 0 13 0c1 0 1 1.5 0 1.5q-0.4 0-0.8 0c-6.3 0.1-12.6 0-18.9 0q-19.9 0-39.8 0-27.8 0-55.7 0-32.9 0-65.8 0-35.2 0-70.3 0-35 0-70 0-31.9 0-63.8 0-26.1 0-52.2 0-17.7 0-35.4 0-6.5 0-13 0c-1 0-1-1.5 0-1.5z"/>
				</g>
			</g>
			<g id="&lt;Group&gt;">
				<g id="&lt;Group&gt;">
					<path id="&lt;Path&gt;" class="s0" d="m1145.1 308.9l-3.2 3.1-3.1-3.1 3.1-3.2z"/>
					<path id="&lt;Path&gt;" class="s0" d="m1145.1 315.2l-3.2 3.1-3.1-3.1 3.1-3.2z"/>
					<path id="&lt;Path&gt;" class="s0" d="m1150.6 312l-2.4 2.5-2.5-2.5 2.5-2.4z"/>
				</g>
				<g id="&lt;Group&gt;">
					<path id="&lt;Path&gt;" class="s0" d="m654.7 305.7l3.1 3.2-3.1 3.1-3.1-3.1z"/>
					<path id="&lt;Path&gt;" class="s0" d="m654.7 312l3.1 3.2-3.1 3.1-3.1-3.1z"/>
					<path id="&lt;Path&gt;" class="s0" d="m648.5 309.6l2.4 2.4-2.4 2.5-2.5-2.5z"/>
				</g>
			</g>
		</g>
		<g id="&lt;Group&gt;">
			<g id="&lt;Group&gt;">
				<g id="&lt;Group&gt;">
					<path id="&lt;Path&gt;" class="s0" d="m846.3 308.6l3.5 3.4-3.5 3.5-3.4-3.5z"/>
					<path id="&lt;Path&gt;" class="s0" d="m853.2 308.6l3.5 3.4-3.5 3.5-3.4-3.5z"/>
				</g>
				<g id="&lt;Group&gt;">
					<path id="&lt;Path&gt;" class="s0" d="m805.8 309.2l2.9 2.8-2.9 2.8-2.8-2.8z"/>
					<path id="&lt;Path&gt;" class="s0" d="m811.5 309.2l2.8 2.8-2.8 2.8-2.8-2.8z"/>
				</g>
				<g id="&lt;Group&gt;">
					<path id="&lt;Path&gt;" class="s0" d="m764.8 309.2l2.8 2.8-2.8 2.8-2.9-2.8z"/>
					<path id="&lt;Path&gt;" class="s0" d="m770.4 309.2l2.8 2.8-2.8 2.8-2.8-2.8z"/>
				</g>
				<g id="&lt;Group&gt;">
					<path id="&lt;Path&gt;" class="s0" d="m723.7 309.2l2.8 2.8-2.8 2.8-2.9-2.8z"/>
					<path id="&lt;Path&gt;" class="s0" d="m729.3 309.2l2.8 2.8-2.8 2.8-2.8-2.8z"/>
				</g>
				<g id="&lt;Group&gt;">
					<path id="&lt;Path&gt;" class="s0" d="m682.6 309.2l2.8 2.8-2.8 2.8-2.9-2.8z"/>
					<path id="&lt;Path&gt;" class="s0" d="m688.2 309.2l2.9 2.8-2.9 2.8-2.8-2.8z"/>
				</g>
			</g>
			<g id="&lt;Group&gt;">
				<g id="&lt;Group&gt;">
					<path id="&lt;Path&gt;" class="s0" d="m1106.6 308.6l3.4 3.4-3.4 3.5-3.5-3.5z"/>
					<path id="&lt;Path&gt;" class="s0" d="m1113.5 308.6l3.4 3.4-3.4 3.5-3.5-3.5z"/>
				</g>
				<g id="&lt;Group&gt;">
					<path id="&lt;Path&gt;" class="s0" d="m1066.1 309.2l2.8 2.8-2.8 2.8-2.8-2.8z"/>
					<path id="&lt;Path&gt;" class="s0" d="m1071.7 309.2l2.9 2.8-2.9 2.8-2.8-2.8z"/>
				</g>
				<g id="&lt;Group&gt;">
					<path id="&lt;Path&gt;" class="s0" d="m1025 309.2l2.8 2.8-2.8 2.8-2.8-2.8z"/>
					<path id="&lt;Path&gt;" class="s0" d="m1030.6 309.2l2.9 2.8-2.9 2.8-2.8-2.8z"/>
				</g>
				<g id="&lt;Group&gt;">
					<path id="&lt;Path&gt;" class="s0" d="m983.9 309.2l2.8 2.8-2.8 2.8-2.8-2.8z"/>
					<path id="&lt;Path&gt;" class="s0" d="m989.6 309.2l2.8 2.8-2.8 2.8-2.9-2.8z"/>
				</g>
				<g id="&lt;Group&gt;">
					<path id="&lt;Path&gt;" class="s0" d="m942.8 309.2l2.8 2.8-2.8 2.8-2.8-2.8z"/>
					<path id="&lt;Path&gt;" class="s0" d="m948.5 309.2l2.8 2.8-2.8 2.8-2.9-2.8z"/>
				</g>
			</g>
		</g>
	</g>
</svg>