<svg xmlns="http://www.w3.org/2000/svg" version="1.2" viewBox="49.4 402.7 504.5 12.7">
	<title>decorative-lines-with-background</title>
	<style>
		.s0 { fill: #d6ad60 } 
	</style>
	<g id="line-3">
		<g id="&lt;Group&gt;">
			<path id="&lt;Compound Path&gt;" fill-rule="evenodd" class="s0" d="m305.8 409.1c0 2.3-1.8 4.1-4.1 4.1-2.3 0-4.2-1.8-4.2-4.1 0-2.3 1.9-4.2 4.2-4.2 2.3 0 4.1 1.9 4.1 4.2zm-1.6 0c0-1.4-1.1-2.6-2.5-2.6-1.5 0-2.6 1.2-2.6 2.6 0 1.4 1.1 2.6 2.6 2.6 1.4 0 2.5-1.2 2.5-2.6z"/>
			<path id="&lt;Path&gt;" class="s0" d="m304.2 409.1c0 1.4-1.1 2.6-2.5 2.6-1.5 0-2.6-1.2-2.6-2.6 0-1.4 1.1-2.6 2.6-2.6 1.4 0 2.5 1.2 2.5 2.6z"/>
			<path id="&lt;Compound Path&gt;" fill-rule="evenodd" class="s0" d="m308 409.1c0 3.5-2.8 6.3-6.3 6.3-3.5 0-6.4-2.8-6.4-6.3 0-3.5 2.9-6.4 6.4-6.4 3.5 0 6.3 2.9 6.3 6.4zm-2.2 0c0-2.3-1.8-4.2-4.1-4.2-2.3 0-4.2 1.9-4.2 4.2 0 2.3 1.9 4.1 4.2 4.1 2.3 0 4.1-1.8 4.1-4.1z"/>
		</g>
		<g id="&lt;Group&gt;">
			<g id="&lt;Group&gt;">
				<path id="&lt;Path&gt;" class="s0" d="m74.6 409.4c-1.3 0-2.7 0.4-3.7 1.4-0.4 0.5-0.8 1-1 1.8-0.8-1.3-2-2.1-3.2-2.6-1.8 0.8-4 2.3-4.8 5-1.8-3-4.9-4.5-7.6-5.2-2.7-0.7-4.9-0.7-4.9-0.7 0 0 2.2 0 4.9-0.7 2.7-0.8 5.8-2.2 7.6-5.2 0.8 2.7 3 4.2 4.8 5 1.2-0.5 2.4-1.3 3.2-2.6 0.3 1 0.9 1.7 1.5 2.2 0.9 0.7 2.1 1 3.2 1z"/>
				<path id="&lt;Path&gt;" class="s0" d="m297.5 408v1.1 1.1h-228.2v-1.1-1.1z"/>
			</g>
		</g>
		<g id="&lt;Group&gt;">
			<g id="&lt;Group&gt;">
				<path id="&lt;Path&gt;" class="s0" d="m553.9 409.1c0 0-2.2 0-4.9 0.7-2.6 0.7-5.8 2.2-7.5 5.2-0.9-2.7-3.1-4.2-4.9-5-1.2 0.5-2.4 1.3-3.1 2.6-0.3-0.8-0.7-1.3-1.1-1.8-1-1-2.3-1.4-3.7-1.4v-0.6c1.1 0 2.3-0.3 3.2-1 0.7-0.5 1.3-1.2 1.6-2.2 0.7 1.3 1.9 2.1 3.1 2.6 1.8-0.8 4-2.3 4.9-5 1.7 3 4.9 4.4 7.5 5.2 2.7 0.7 4.9 0.7 4.9 0.7z"/>
				<path id="&lt;Path&gt;" class="s0" d="m534 408v2.2h-228.2v-2.2z"/>
			</g>
		</g>
	</g>
</svg>