<svg xmlns="http://www.w3.org/2000/svg" version="1.2" viewBox="49.39 300.1 501.37 23.8">
	<title>decorative-lines-with-background</title>
	<style>
		.s0 { fill: #d9d4d4 } 
	</style>
	<g id="line-2">
		<g id="&lt;Group&gt;">
			<g id="&lt;Group&gt;">
				<path id="&lt;Path&gt;" class="s0" d="m542.7 312.9h-490.6v-1.8h490.6z"/>
			</g>
			<g id="&lt;Group&gt;">
				<path id="&lt;Path&gt;" class="s0" d="m300.5 308.8l-3.1 3.2-3-3.2c-1-0.9-1.1-2.4-0.4-3.5l3.4-5.2 3.5 5.2c0.7 1.1 0.5 2.6-0.4 3.5z"/>
				<path id="&lt;Path&gt;" class="s0" d="m294.4 315.2l3-3.2 3.1 3.2c0.9 0.9 1.1 2.4 0.4 3.5l-3.5 5.2-3.4-5.2c-0.7-1.1-0.6-2.6 0.4-3.5z"/>
				<path id="&lt;Path&gt;" class="s0" d="m289.8 306l7.6 6-7.6 6c-1.4 1.1-3.4 1-4.7-0.3l-4.9-5-2.5 2.6c-0.6 0.6-1.4 0.5-1.9-0.2-0.9-1.3 0-3.1 1.5-3.1-1.5 0-2.4-1.8-1.5-3.1 0.5-0.7 1.3-0.7 1.9-0.1l2.5 2.6 4.9-5c1.3-1.3 3.3-1.5 4.7-0.4z"/>
				<path id="&lt;Path&gt;" class="s0" d="m318.9 315.3c-0.6 0.6-1.4 0.5-1.9-0.2l-2-2.8-5.2 5.4c-1.3 1.3-3.3 1.4-4.7 0.3l-7.7-6 7.7-6c1.4-1.1 3.4-0.9 4.7 0.4l5.2 5.3 2-2.8c0.5-0.7 1.3-0.7 1.9-0.1 1.2 1.2 0.3 3.2-1.3 3.2 1.6 0 2.5 2.1 1.3 3.3z"/>
			</g>
			<g id="&lt;Group&gt;">
				<path id="&lt;Path&gt;" class="s0" d="m361.8 310.5l-1.5 1.5-1.5-1.5c-0.5-0.5-0.5-1.2-0.2-1.8l1.7-2.5 1.7 2.5c0.3 0.6 0.3 1.3-0.2 1.8z"/>
				<path id="&lt;Path&gt;" class="s0" d="m358.8 313.6l1.5-1.6 1.5 1.6c0.5 0.4 0.5 1.2 0.2 1.7l-1.7 2.6-1.7-2.6c-0.3-0.5-0.3-1.3 0.2-1.7z"/>
				<path id="&lt;Path&gt;" class="s0" d="m369 312l-2.7 2.8c-0.6 0.6-1.6 0.7-2.2 0.2l-3.8-3 3.8-2.9c0.6-0.6 1.6-0.5 2.2 0.1z"/>
				<path id="&lt;Path&gt;" class="s0" d="m356.5 309.1l3.8 2.9-3.8 3c-0.7 0.5-1.6 0.4-2.3-0.2l-2.6-2.8 2.6-2.8c0.7-0.6 1.6-0.7 2.3-0.1z"/>
				<path id="&lt;Path&gt;" class="s0" d="m236.1 310.5l-1.5 1.5-1.5-1.5c-0.5-0.5-0.5-1.2-0.2-1.8l1.7-2.5 1.7 2.5c0.3 0.6 0.2 1.3-0.2 1.8z"/>
				<path id="&lt;Path&gt;" class="s0" d="m233.1 313.6l1.5-1.6 1.5 1.6c0.4 0.4 0.5 1.2 0.2 1.7l-1.7 2.6-1.7-2.6c-0.3-0.5-0.3-1.3 0.2-1.7z"/>
				<path id="&lt;Path&gt;" class="s0" d="m240.6 309.2l2.7 2.8-2.7 2.8c-0.6 0.6-1.6 0.7-2.3 0.2l-3.7-3 3.7-2.9c0.7-0.6 1.7-0.5 2.3 0.1z"/>
				<path id="&lt;Path&gt;" class="s0" d="m230.8 309.1l3.8 2.9-3.8 3c-0.7 0.5-1.6 0.4-2.3-0.2l-2.7-2.8 2.7-2.8c0.7-0.6 1.6-0.7 2.3-0.1z"/>
			</g>
		</g>
		<g id="&lt;Group&gt;">
			<path id="&lt;Path&gt;" class="s0" d="m540.7 312l4.9-6.6c1.1-1.5 2.8-1.6 4-0.3 2.5 2.5 0.7 6.9-2.8 6.9z"/>
			<path id="&lt;Path&gt;" class="s0" d="m546.8 312c3.5 0 5.3 4.4 2.8 7-1.2 1.3-2.9 1.1-4-0.4l-4.9-6.6z"/>
		</g>
		<g id="&lt;Group&gt;">
			<path id="&lt;Path&gt;" class="s0" d="m53.4 312.3c-3.5 0-5.4-4.3-2.8-6.9 1.2-1.3 2.9-1.1 4 0.4l4.9 6.5z"/>
			<path id="&lt;Path&gt;" class="s0" d="m59.5 312.3l-4.9 6.6c-1.1 1.5-2.8 1.7-4 0.4-2.6-2.6-0.7-7 2.8-7z"/>
		</g>
	</g>
</svg>