<svg xmlns="http://www.w3.org/2000/svg" version="1.2" viewBox="646.07 396.4 504.53 25.4">
	<title>decorative-lines-with-background</title>
	<style>
		.s0 { fill: #d6ad60 } 
	</style>
	<g id="line-9">
		<g id="&lt;Group&gt;">
			<path id="&lt;Path&gt;" class="s0" d="m902.6 409.1c0 2.3-1.9 4.2-4.3 4.2-2.3 0-4.2-1.9-4.2-4.2 0-2.4 1.9-4.3 4.2-4.3 2.4 0 4.3 1.9 4.3 4.3z"/>
		</g>
		<g id="&lt;Group&gt;">
			<g id="&lt;Group&gt;">
				<g id="&lt;Group&gt;">
					<g id="&lt;Group&gt;">
						<path id="&lt;Path&gt;" class="s0" d="m1132.1 409.1c7 0 12.7-5.7 12.7-12.7 0 3.8 1.7 7.2 4.3 9.5 2 1.7 2 4.6 0 6.4-2.6 2.3-4.3 5.7-4.3 9.5 0-7-5.7-12.7-12.7-12.7z"/>
					</g>
				</g>
				<g id="&lt;Group&gt;">
					<path id="&lt;Path&gt;" class="s0" d="m1130.6 404.8c2.3 0 4.2 1.9 4.2 4.3 0 2.3-1.9 4.2-4.2 4.2-2.4 0-4.3-1.9-4.3-4.2 0-2.4 1.9-4.3 4.3-4.3z"/>
				</g>
			</g>
			<g id="&lt;Group&gt;">
				<path id="&lt;Path&gt;" class="s0" d="m1130.1 410h-234.5v-1.8h234.5z"/>
			</g>
			<g id="&lt;Group&gt;">
				<g id="&lt;Group&gt;">
					<path id="&lt;Path&gt;" class="s0" d="m904.8 410h-234.5v-1.8h234.5z"/>
				</g>
				<g id="&lt;Group&gt;">
					<g id="&lt;Group&gt;">
						<g id="&lt;Group&gt;">
							<path id="&lt;Path&gt;" class="s0" d="m651.8 421.8c0-3.8-1.7-7.2-4.3-9.5-1.9-1.8-1.9-4.7 0-6.4 2.6-2.3 4.3-5.7 4.3-9.5 0 7 5.7 12.7 12.7 12.7-7 0-12.7 5.7-12.7 12.7z"/>
						</g>
					</g>
					<g id="&lt;Group&gt;">
						<path id="&lt;Path&gt;" class="s0" d="m670.3 409.1c0 2.3-1.9 4.2-4.2 4.2-2.4 0-4.3-1.9-4.3-4.2 0-2.4 1.9-4.3 4.3-4.3 2.3 0 4.2 1.9 4.2 4.3z"/>
					</g>
				</g>
			</g>
		</g>
	</g>
</svg>