<svg xmlns="http://www.w3.org/2000/svg" version="1.2" viewBox="646 688.9 504.6 22.8">
	<title>decorative-lines-with-background</title>
	<style>
		.s0 { fill: #d9d4d4 } 
	</style>
	<g id="line-12">
		<g id="&lt;Group&gt;">
			<g id="&lt;Group&gt;">
				<g id="&lt;Group&gt;">
					<g id="&lt;Group&gt;">
						<path id="&lt;Path&gt;" class="s0" d="m886 691.8q12.3 0 24.7 0c0.6 0 0.6 1 0 1q-12.4 0-24.7 0c-0.7 0-0.7-1 0-1z"/>
					</g>
				</g>
				<g id="&lt;Group&gt;">
					<g id="&lt;Group&gt;">
						<path id="&lt;Path&gt;" class="s0" d="m886 707.8q12.3 0 24.7 0c0.6 0 0.6 1 0 1q-12.4 0-24.7 0c-0.7 0-0.7-1 0-1z"/>
					</g>
				</g>
			</g>
			<g id="&lt;Group&gt;">
				<path id="&lt;Compound Path&gt;" fill-rule="evenodd" class="s0" d="m914 711.7h-31.4c-0.3 0-0.5-0.1-0.7-0.4-0.2-0.2-0.2-0.5-0.1-0.8l3.5-10-3.5-10.4c-0.1-0.3-0.1-0.6 0.1-0.9 0.2-0.2 0.4-0.3 0.7-0.3h31.4c0.3 0 0.6 0.1 0.7 0.3 0.2 0.3 0.3 0.6 0.2 0.9l-3.6 10.4 3.6 10c0.1 0.3 0 0.6-0.2 0.8-0.1 0.3-0.4 0.4-0.7 0.4zm-30.1-1.8h28.8l-3.2-9q-0.1-0.3 0-0.6l3.3-9.6h-28.9l3.2 9.6q0.1 0.3 0 0.6z"/>
			</g>
		</g>
		<g id="&lt;Group&gt;">
			<g id="&lt;Group&gt;">
				<g id="&lt;Group&gt;">
					<g id="&lt;Group&gt;">
						<g id="&lt;Group&gt;">
							<path id="&lt;Path&gt;" class="s0" d="m922.9 697.4q0.2 0 0.4 0c2.8-0.4 6 0 8.9 0q9.2 0 18.5 0 28.3 0 56.7 0 32.7 0 65.5 0 27.1 0 54.3 0 11.2 0 22.5 0c1.2 0 1.2 1.8 0 1.8q-0.2 0-0.4 0c-2.8 0.3-6 0-8.9 0q-9.2 0-18.5 0-28.3 0-56.7 0-32.7 0-65.5 0-27.1 0-54.2 0-11.3 0-22.6 0c-1.2 0-1.2-1.8 0-1.8z"/>
						</g>
					</g>
					<g id="&lt;Group&gt;">
						<g id="&lt;Group&gt;">
							<g id="&lt;Group&gt;">
								<path id="&lt;Path&gt;" class="s0" d="m930.5 701.5c0.1 0 0.3 0 0.4 0 0.7-0.2 1.8 0 2.6 0q2.5 0 5 0 8.1 0 16.2 0 24.4 0 48.9 0 28.2 0 56.4 0 23.4 0 46.7 0 9.7 0 19.4 0c0.7 0 0.7 1 0 1-0.1 0-0.2-0.1-0.3 0-0.8 0.1-1.9 0-2.7 0q-2.5 0-5 0-8.1 0-16.2 0-24.4 0-48.8 0-28.3 0-56.5 0-23.3 0-46.7 0-9.7 0-19.4 0c-0.6 0-0.6-1 0-1z"/>
							</g>
						</g>
						<g id="&lt;Group&gt;">
							<g id="&lt;Group&gt;">
								<path id="&lt;Path&gt;" class="s0" d="m930.5 694.1c0.1 0 0.3 0 0.4 0 0.7-0.2 1.8 0 2.6 0q2.5 0 5 0 8.1 0 16.2 0 24.4 0 48.9 0 28.2 0 56.4 0 23.4 0 46.7 0 9.7 0 19.4 0c0.7 0 0.7 1 0 1-0.1 0-0.2 0-0.3 0-0.8 0.2-1.9 0-2.7 0q-2.5 0-5 0-8.1 0-16.2 0-24.4 0-48.8 0-28.3 0-56.5 0-23.3 0-46.7 0-9.7 0-19.4 0c-0.6 0-0.6-1 0-1z"/>
							</g>
						</g>
					</g>
				</g>
			</g>
			<g id="&lt;Group&gt;">
				<g id="&lt;Group&gt;">
					<g id="&lt;Group&gt;">
						<g id="&lt;Group&gt;">
							<path id="&lt;Path&gt;" class="s0" d="m873.8 699.2q-0.2 0-0.4 0c-2.9 0.3-6 0-8.9 0q-9.3 0-18.6 0-28.3 0-56.6 0-32.8 0-65.6 0-27.1 0-54.2 0-11.3 0-22.6 0c-1.2 0-1.2-1.8 0-1.8q0.2 0 0.4 0c2.9-0.4 6 0 8.9 0q9.3 0 18.5 0 28.4 0 56.7 0 32.8 0 65.6 0 27.1 0 54.2 0 11.3 0 22.6 0c1.1 0 1.1 1.8 0 1.8z"/>
						</g>
					</g>
					<g id="&lt;Group&gt;">
						<g id="&lt;Group&gt;">
							<g id="&lt;Group&gt;">
								<path id="&lt;Path&gt;" class="s0" d="m866.1 702.5c-0.1 0-0.2-0.1-0.3 0-0.8 0.1-1.9 0-2.7 0q-2.5 0-5 0-8.1 0-16.2 0-24.4 0-48.8 0-28.3 0-56.5 0-23.3 0-46.6 0-9.8 0-19.5 0c-0.6 0-0.6-1 0-1 0.1 0 0.3 0 0.4 0 0.7-0.2 1.8 0 2.6 0q2.5 0 5 0 8.1 0 16.2 0 24.4 0 48.9 0 28.2 0 56.4 0 23.4 0 46.7 0 9.7 0 19.4 0c0.7 0 0.7 1 0 1z"/>
							</g>
						</g>
						<g id="&lt;Group&gt;">
							<g id="&lt;Group&gt;">
								<path id="&lt;Path&gt;" class="s0" d="m866.1 695.1c-0.1 0-0.2 0-0.3 0-0.8 0.2-1.9 0-2.7 0q-2.5 0-5 0-8.1 0-16.2 0-24.4 0-48.8 0-28.3 0-56.5 0-23.3 0-46.6 0-9.8 0-19.5 0c-0.6 0-0.6-1 0-1 0.1 0 0.3 0 0.4 0 0.7-0.2 1.8 0 2.6 0q2.5 0 5 0 8.1 0 16.2 0 24.4 0 48.9 0 28.2 0 56.4 0 23.4 0 46.7 0 9.7 0 19.4 0c0.7 0 0.7 1 0 1z"/>
							</g>
						</g>
					</g>
				</g>
			</g>
		</g>
	</g>
</svg>