<svg xmlns="http://www.w3.org/2000/svg" version="1.2" viewBox="49.4 482.3 504.5 47.8">
	<title>decorative-lines-with-background</title>
	<style>
		.s0 { fill: #d9d4d4 } 
	</style>
	<g id="line-4">
		<g id="&lt;Group&gt;">
			<g id="&lt;Group&gt;">
				<g id="&lt;Group&gt;">
					<g id="&lt;Group&gt;">
						<g id="&lt;Group&gt;">
							<path id="&lt;Path&gt;" class="s0" d="m545.1 498.3l2 2.4c0 0-0.4 3.9-8.5 5 0 0 6.6-1.9 6.5-7.4z"/>
						</g>
						<g id="&lt;Group&gt;">
							<path id="&lt;Path&gt;" class="s0" d="m538.6 506.8c8.1 1.1 8.5 5 8.5 5l-2 2.5c0.1-5.6-6.5-7.5-6.5-7.5z"/>
						</g>
					</g>
					<g id="&lt;Group&gt;">
						<path id="&lt;Path&gt;" class="s0" d="m550.6 507.9l-8.1-1.6 8.1-1.7 3.3 1.7z"/>
					</g>
				</g>
				<g id="&lt;Group&gt;">
					<g id="&lt;Group&gt;">
						<g id="&lt;Group&gt;">
							<g id="&lt;Group&gt;">
								<g id="&lt;Group&gt;">
									<path id="&lt;Path&gt;" class="s0" d="m290 529.3l-3.8-0.3c0 0-2.9-3.7 2.9-11.4 0 0-3.9 7.1 0.9 11.7z"/>
								</g>
								<g id="&lt;Group&gt;">
									<path id="&lt;Path&gt;" class="s0" d="m288.2 516.7c-7.8 5.8-11.4 2.9-11.4 2.9l-0.4-3.8c4.7 4.8 11.8 0.9 11.8 0.9z"/>
								</g>
							</g>
							<g id="&lt;Group&gt;">
								<path id="&lt;Path&gt;" class="s0" d="m277.2 525.8l8.2-5.4-5.5 8.2-4.2 1.5z"/>
							</g>
						</g>
					</g>
					<g id="&lt;Group&gt;">
						<path id="&lt;Path&gt;" class="s0" d="m283.7 522.8l-0.7-0.7c10.5-10.5 24.5-16.3 39.4-16.3h225v1h-225c-14.6 0-28.4 5.7-38.7 16z"/>
					</g>
				</g>
			</g>
		</g>
		<g id="&lt;Group&gt;">
			<g id="&lt;Group&gt;">
				<g id="&lt;Group&gt;">
					<g id="&lt;Group&gt;">
						<g id="&lt;Group&gt;">
							<path id="&lt;Path&gt;" class="s0" d="m58.2 514l-2-2.4c0 0 0.5-3.9 8.5-5 0 0-6.6 1.9-6.5 7.4z"/>
						</g>
						<g id="&lt;Group&gt;">
							<path id="&lt;Path&gt;" class="s0" d="m64.7 505.5c-8-1.1-8.5-5-8.5-5l2-2.5c-0.1 5.6 6.5 7.5 6.5 7.5z"/>
						</g>
					</g>
					<g id="&lt;Group&gt;">
						<path id="&lt;Path&gt;" class="s0" d="m52.8 504.4l8 1.6-8 1.7-3.4-1.7z"/>
					</g>
				</g>
				<g id="&lt;Group&gt;">
					<g id="&lt;Group&gt;">
						<g id="&lt;Group&gt;">
							<g id="&lt;Group&gt;">
								<g id="&lt;Group&gt;">
									<path id="&lt;Path&gt;" class="s0" d="m313.4 483l3.7 0.3c0 0 2.9 3.7-2.9 11.4 0 0 4-7.1-0.8-11.7z"/>
								</g>
								<g id="&lt;Group&gt;">
									<path id="&lt;Path&gt;" class="s0" d="m315.2 495.7c7.7-5.9 11.3-3 11.3-3l0.4 3.8c-4.6-4.8-11.7-0.8-11.7-0.8z"/>
								</g>
							</g>
							<g id="&lt;Group&gt;">
								<path id="&lt;Path&gt;" class="s0" d="m326.1 486.5l-8.1 5.4 5.4-8.2 4.2-1.4z"/>
							</g>
						</g>
					</g>
					<g id="&lt;Group&gt;">
						<path id="&lt;Path&gt;" class="s0" d="m280.9 506.5h-225v-1h225c14.6 0 28.4-5.6 38.7-16l0.7 0.7c-10.5 10.5-24.5 16.3-39.4 16.3z"/>
					</g>
				</g>
			</g>
		</g>
	</g>
</svg>