<svg xmlns="http://www.w3.org/2000/svg" version="1.2" viewBox="49.4 689.6 504.6 21.4">
	<title>decorative-lines-with-background</title>
	<style>
		.s0 { fill: #d6ad60 } 
	</style>
	<g id="line-6">
		<g id="&lt;Group&gt;">
			<g id="&lt;Group&gt;">
				<g id="&lt;Group&gt;">
					<path id="&lt;Path&gt;" class="s0" d="m297 711q-0.2 0-0.4 0c-0.8 0-7.2-0.1-11.7-8.2-1.5-2.6-3.4-5-5.2-6.3l-0.2-0.2c-2.2-1.8-5.2-2.4-7.9-1.5-2.6 0.8-4.5 2.8-5.2 5.4q0 0.3-0.1 0.6c-0.4 1.9 0.1 3.8 1.3 5.4 1.7 2.3 4 3.3 6.3 2.8 2-0.5 3.6-2.1 4-4.2 0.2-1.1 0-2.2-0.7-3.2-1-1.4-2.4-2-3.7-1.7-1.2 0.3-2.1 1.3-2.4 2.5-0.2 1.3 0.6 2.5 1.8 2.7l-0.3 1.8c-2.2-0.4-3.7-2.6-3.2-4.8 0.3-2 1.8-3.5 3.7-3.9 2-0.5 4.1 0.4 5.5 2.4 1 1.3 1.4 3 1.1 4.5-0.5 2.8-2.7 5-5.4 5.7-2.9 0.7-6-0.6-8.1-3.5-1.5-2-2.1-4.4-1.7-6.8q0.1-0.4 0.2-0.7c0.9-3.2 3.2-5.7 6.4-6.7 3.3-1.1 6.8-0.4 9.5 1.8l0.3 0.2c1.9 1.4 4 4 5.6 6.9 4.1 7.3 10 7.2 10 7.2h0.1 0.1c1 0 2-0.3 2.7-0.9 0.9-0.7 1.3-1.7 1.4-2.8 0.2-1.6-1-3-2.6-3.2-0.6 0-1.2 0.2-1.6 0.6-0.7 0.7-0.9 1.4-0.7 2.1 0.2 0.6 0.7 1 1.3 1.1l-0.1 1.7c-1.3-0.1-2.4-0.9-2.9-2.2-0.5-1.3-0.1-2.8 1.1-4 0.8-0.8 1.9-1.2 3-1.1 2.6 0.3 4.5 2.6 4.3 5.2-0.1 1.5-0.8 2.9-2 3.9-1 0.9-2.3 1.4-3.6 1.4z"/>
				</g>
			</g>
			<g id="&lt;Group&gt;">
				<path id="&lt;Path&gt;" class="s0" d="m306.5 711c-1.3 0-2.6-0.5-3.6-1.4-1.2-1-1.9-2.4-2.1-3.9-0.2-2.6 1.8-4.9 4.3-5.2 1.1-0.1 2.2 0.3 3.1 1.1 1.1 1.2 1.5 2.7 1 4-0.4 1.3-1.5 2.1-2.8 2.2l-0.2-1.7c0.6-0.1 1.1-0.5 1.4-1.1 0.2-0.7 0-1.4-0.7-2.1-0.4-0.4-1-0.6-1.6-0.6-1.6 0.2-2.8 1.6-2.7 3.2 0.1 1.1 0.6 2.1 1.4 2.8 0.8 0.6 1.8 0.9 2.8 0.9h0.1c0.3 0 6 0.1 10.1-7.2 1.6-2.9 3.7-5.5 5.6-7l0.2-0.1c2.7-2.2 6.3-2.9 9.6-1.8 3.2 1 5.5 3.5 6.4 6.7q0.1 0.3 0.1 0.7c0.5 2.4-0.1 4.8-1.6 6.8-2.1 2.9-5.2 4.2-8.1 3.5-2.8-0.7-4.9-2.9-5.4-5.7-0.3-1.5 0.1-3.2 1-4.5 1.5-2 3.6-2.9 5.6-2.4 1.9 0.4 3.3 1.9 3.7 3.9 0.4 2.2-1 4.4-3.2 4.8l-0.4-1.8c1.3-0.2 2.1-1.4 1.8-2.7-0.2-1.2-1.1-2.2-2.3-2.5-1.3-0.3-2.7 0.3-3.7 1.7-0.7 1-1 2.1-0.8 3.2 0.4 2.1 2 3.7 4.1 4.2 2.2 0.5 4.5-0.5 6.3-2.8 1.2-1.6 1.6-3.5 1.3-5.4q-0.1-0.3-0.2-0.6c-0.7-2.6-2.6-4.6-5.1-5.4-2.8-0.9-5.7-0.3-7.9 1.5l-0.3 0.2c-1.7 1.3-3.7 3.7-5.2 6.4-4.4 8-10.8 8.1-11.6 8.1q-0.2 0-0.4 0z"/>
			</g>
			<g id="&lt;Group&gt;">
				<path id="&lt;Compound Path&gt;" fill-rule="evenodd" class="s0" d="m301.7 700.9c-1.4 0-2.5-0.9-2.8-2.4-0.7-3.3 2-7.5 2.1-7.7l0.7-1.2 0.8 1.2c0.1 0.2 2.7 4.4 2.1 7.7-0.3 1.5-1.4 2.4-2.9 2.4zm-1.1-2.7c0.2 0.7 0.7 0.9 1.1 0.9 0.5 0 1-0.2 1.1-0.9 0.3-1.6-0.4-3.7-1.1-5-0.6 1.3-1.4 3.4-1.1 5z"/>
			</g>
		</g>
		<g id="&lt;Group&gt;">
			<g id="&lt;Group&gt;">
				<path id="&lt;Compound Path&gt;" fill-rule="evenodd" class="s0" d="m546.3 703.2q-0.6 0.1-1.1-0.1c-1.4-0.2-2.4-1.4-2.4-2.8 0-1.5 1-2.7 2.4-2.9 3.3-0.7 7.4 2 7.6 2.1l1.2 0.8-1.2 0.7c-0.1 0.1-3.5 2.2-6.5 2.2zm-0.8-4.1c-0.6 0.2-0.9 0.7-0.9 1.2 0 0.4 0.3 0.9 0.9 1.1 1.6 0.3 3.6-0.5 5-1.1-1.4-0.7-3.4-1.5-5-1.2z"/>
			</g>
			<g id="&lt;Group&gt;">
				<path id="&lt;Compound Path&gt;" fill-rule="evenodd" class="s0" d="m539.4 701.2q-0.1 0-0.2 0 0 0 0 0c-0.5 0-3.9-0.2-6.1-4.3-0.7-1.2-1.7-2.4-2.5-3l-0.1-0.1c-1-0.8-2.3-1.1-3.5-0.7-1.1 0.4-2 1.2-2.3 2.4q0 0.1 0 0.3c-0.2 0.8 0 1.6 0.5 2.3 0.8 1 1.7 1.4 2.7 1.2 0.8-0.2 1.5-0.9 1.7-1.8 0-0.4-0.1-0.8-0.3-1.2-0.4-0.5-0.9-0.7-1.4-0.6-0.4 0.1-0.8 0.4-0.8 0.8-0.1 0.4 0.1 0.8 0.5 0.9l-0.3 1.7c-1.4-0.2-2.3-1.5-2-2.9 0.2-1.1 1.1-2 2.2-2.3 1.2-0.3 2.4 0.3 3.2 1.4 0.6 0.7 0.8 1.7 0.6 2.6-0.3 1.6-1.5 2.8-3 3.2-1.6 0.3-3.3-0.4-4.5-1.9-0.8-1.1-1.1-2.5-0.9-3.8q0-0.2 0.1-0.4c0.4-1.7 1.7-3 3.4-3.6 1.8-0.6 3.8-0.2 5.2 1l0.1 0.1c1 0.7 2.1 2 2.9 3.5 1.3 2.3 2.9 3 3.9 3.3-0.4-0.3-0.7-0.7-0.8-1.1-0.3-0.8-0.1-1.8 0.6-2.4 0.5-0.5 1.2-0.8 1.9-0.7 1.5 0.1 2.6 1.5 2.5 3-0.1 0.9-0.5 1.7-1.1 2.3-0.6 0.5-1.4 0.8-2.2 0.8zm0.6-4.3c-0.2 0-0.3 0-0.4 0.1q-0.3 0.3-0.2 0.6c0 0.1 0.1 0.2 0.2 0.2l-0.1 1.6q0.5-0.1 0.9-0.4c0.3-0.2 0.5-0.6 0.5-1 0.1-0.6-0.4-1.1-0.9-1.1q0 0 0 0z"/>
			</g>
			<g id="&lt;Group&gt;">
				<path id="&lt;Compound Path&gt;" fill-rule="evenodd" class="s0" d="m528.2 709.4q-0.9 0-1.8-0.3c-1.7-0.5-3-1.9-3.4-3.6q-0.1-0.2-0.1-0.4c-0.2-1.3 0.1-2.7 0.9-3.7 1.2-1.6 2.9-2.3 4.5-1.9 1.5 0.3 2.7 1.6 3 3.1 0.2 0.9 0 1.9-0.6 2.6-0.8 1.2-2 1.7-3.2 1.4-1.1-0.2-2-1.1-2.2-2.3-0.3-1.3 0.6-2.6 2-2.9l0.3 1.8c-0.4 0-0.6 0.4-0.5 0.8 0 0.4 0.4 0.8 0.8 0.8 0.5 0.2 1-0.1 1.4-0.6 0.2-0.4 0.3-0.8 0.3-1.2-0.2-0.9-0.9-1.6-1.7-1.8-1-0.2-1.9 0.2-2.7 1.2-0.5 0.7-0.7 1.6-0.5 2.4q0 0.1 0 0.2c0.3 1.2 1.2 2 2.3 2.4 1.2 0.4 2.5 0.2 3.5-0.6l0.1-0.1c0.8-0.7 1.8-1.8 2.5-3.1 2.2-4.1 5.6-4.2 6.1-4.2 0.9-0.1 1.7 0.2 2.4 0.7 0.6 0.6 1 1.4 1.1 2.3 0.1 1.5-1 2.9-2.5 3-0.7 0.1-1.4-0.1-1.9-0.6-0.7-0.7-0.9-1.6-0.6-2.5 0.1-0.4 0.4-0.8 0.8-1-1 0.2-2.6 0.9-3.9 3.2-0.8 1.5-1.9 2.8-2.9 3.6l-0.1 0.1c-1 0.8-2.2 1.2-3.4 1.2zm11.3-8.2l0.1 1.5c-0.1 0-0.2 0.1-0.2 0.2q-0.1 0.3 0.2 0.6c0.1 0.1 0.3 0.2 0.4 0.2 0.5-0.1 1-0.6 0.9-1.2 0-0.4-0.2-0.7-0.5-1q-0.4-0.3-0.9-0.3z"/>
			</g>
		</g>
		<g id="&lt;Group&gt;">
			<path id="&lt;Path&gt;" class="s0" d="m527.2 701.2h-189.1v-1.8h189.1z"/>
		</g>
		<g id="&lt;Group&gt;">
			<g id="&lt;Group&gt;">
				<g id="&lt;Group&gt;">
					<path id="&lt;Compound Path&gt;" fill-rule="evenodd" class="s0" d="m57.1 703.2c-3.1 0-6.4-2.1-6.6-2.2l-1.1-0.7 1.1-0.8c0.2-0.1 4.4-2.8 7.7-2.1 1.4 0.2 2.4 1.4 2.4 2.9 0 1.4-1 2.6-2.4 2.8q-0.6 0.2-1.1 0.1zm-4.2-2.9c1.4 0.6 3.4 1.4 4.9 1.1 0.7-0.2 1-0.7 1-1.1 0-0.5-0.3-1-1-1.2-1.5-0.3-3.5 0.5-4.9 1.2z"/>
				</g>
				<g id="&lt;Group&gt;">
					<path id="&lt;Compound Path&gt;" fill-rule="evenodd" class="s0" d="m63.9 701.2c-0.8 0-1.5-0.3-2.1-0.8-0.7-0.6-1.1-1.4-1.1-2.3-0.2-1.5 1-2.9 2.5-3 0.7-0.1 1.4 0.2 1.9 0.7 0.7 0.6 0.9 1.6 0.6 2.4-0.2 0.4-0.4 0.8-0.8 1.1 0.9-0.3 2.5-1 3.8-3.3 0.9-1.5 1.9-2.8 2.9-3.6h0.1c1.5-1.2 3.4-1.6 5.2-1 1.7 0.6 3 1.9 3.5 3.6q0 0.2 0.1 0.4c0.2 1.3-0.1 2.7-0.9 3.8-1.2 1.5-2.9 2.2-4.5 1.9-1.6-0.4-2.8-1.6-3.1-3.2-0.1-0.9 0.1-1.9 0.7-2.6 0.8-1.1 2-1.7 3.2-1.4 1.1 0.3 2 1.2 2.2 2.3 0.2 1.4-0.6 2.7-2 2.9l-0.3-1.7c0.3-0.1 0.6-0.5 0.5-0.9-0.1-0.4-0.4-0.7-0.8-0.8-0.5-0.1-1 0.1-1.4 0.6-0.3 0.4-0.4 0.8-0.3 1.2 0.2 0.9 0.8 1.6 1.7 1.8 0.9 0.2 1.9-0.2 2.6-1.2 0.6-0.7 0.8-1.5 0.6-2.3q0-0.2-0.1-0.3c-0.3-1.2-1.1-2-2.2-2.4-1.2-0.4-2.5-0.1-3.5 0.7l-0.1 0.1c-0.9 0.6-1.8 1.8-2.5 3-2.3 4.1-5.6 4.3-6.2 4.3q-0.1 0-0.2 0zm-0.5-4.3q0 0 0 0c-0.6 0-1 0.5-0.9 1.1 0 0.4 0.2 0.8 0.5 1q0.4 0.3 0.9 0.4l-0.2-1.6c0.2 0 0.3-0.1 0.3-0.2q0.1-0.3-0.2-0.6c-0.1-0.1-0.3-0.1-0.4-0.1z"/>
				</g>
				<g id="&lt;Group&gt;">
					<path id="&lt;Compound Path&gt;" fill-rule="evenodd" class="s0" d="m75.2 709.4c-1.2 0-2.5-0.4-3.5-1.2l-0.1-0.1c-1-0.8-2-2.1-2.9-3.6-1.3-2.3-2.9-3-3.8-3.2 0.4 0.2 0.7 0.6 0.8 1 0.3 0.9 0.1 1.8-0.6 2.5-0.5 0.5-1.2 0.7-1.9 0.6-1.5-0.1-2.7-1.5-2.5-3 0-0.9 0.4-1.7 1.1-2.3 0.7-0.5 1.5-0.8 2.3-0.7q0 0 0 0c0.6 0 3.9 0.1 6.2 4.2 0.7 1.3 1.6 2.4 2.4 3l0.2 0.2c1 0.8 2.3 1 3.5 0.6 1.1-0.4 1.9-1.2 2.2-2.4q0.1-0.1 0.1-0.2c0.2-0.8 0-1.7-0.6-2.4-0.7-1-1.7-1.4-2.6-1.2-0.9 0.2-1.5 0.9-1.7 1.8-0.1 0.4 0 0.8 0.3 1.2 0.4 0.5 0.9 0.8 1.4 0.6 0.4 0 0.7-0.4 0.8-0.8 0.1-0.4-0.2-0.8-0.5-0.8l0.3-1.8c1.4 0.3 2.2 1.6 2 2.9-0.2 1.2-1.1 2.1-2.2 2.3-1.2 0.3-2.4-0.2-3.2-1.4-0.6-0.7-0.8-1.7-0.7-2.6 0.3-1.5 1.5-2.8 3.1-3.1 1.6-0.4 3.3 0.3 4.5 1.9 0.8 1 1.1 2.4 0.9 3.7q-0.1 0.2-0.1 0.4c-0.5 1.7-1.8 3.1-3.5 3.6q-0.8 0.3-1.7 0.3zm-11.3-8.2q-0.5 0-0.9 0.3c-0.3 0.3-0.5 0.6-0.5 1-0.1 0.6 0.3 1.1 0.9 1.2 0.1 0 0.3-0.1 0.4-0.2q0.3-0.3 0.2-0.6c0-0.1-0.1-0.2-0.3-0.2z"/>
				</g>
			</g>
			<g id="&lt;Group&gt;">
				<path id="&lt;Path&gt;" class="s0" d="m265.3 701.2h-189.1v-1.8h189.1z"/>
			</g>
		</g>
	</g>
</svg>