<svg xmlns="http://www.w3.org/2000/svg" version="1.2" viewBox="49.4 200.6 504.5 28.77">
	<title>decorative-lines-with-background</title>
	<style>
		.s0 { fill: #d9d4d4 } 
	</style>
	<g id="line-1">
		<g id="&lt;Group&gt;">
			<g id="&lt;Group&gt;">
				<g id="&lt;Group&gt;">
					<g id="&lt;Group&gt;">
						<path id="&lt;Path&gt;" class="s0" d="m325.4 221.5c2.3 3.5 0.4 7.1 0.4 7.1-1-7.7-7-10.3-7-10.3-8.6-4.2-15.9 7.9-15.9 7.9 0 0 1.4-12.8 12.7-12.4 3.2 0.1 6.3 1.3 8.9 3.3 2.4 2 6.7 4.4 10.2 1.7-3.5 4.7-7.1 3.7-9.3 2.7z"/>
						<path id="&lt;Path&gt;" class="s0" d="m266.3 218.8c3.5 2.7 7.7 0.3 10.2-1.7 2.6-2 5.7-3.2 8.8-3.3 11.4-0.4 12.7 12.4 12.7 12.4 0 0-7.2-12.1-15.8-7.9 0 0-6 2.6-7.1 10.3 0 0-1.9-3.6 0.4-7.1-2.1 1-5.7 2-9.2-2.7z"/>
					</g>
					<path id="&lt;Path&gt;" class="s0" d="m311.1 211c-4-0.8-7.6 4.2-9.9 8.2q-0.4 0.7-0.7 1.4-0.4-0.7-0.8-1.4c-2.2-4-5.9-9-9.9-8.2 3.2-4.8 8-2.3 10.7 5.6 2.6-7.9 7.5-10.4 10.6-5.6z"/>
					<path id="&lt;Path&gt;" class="s0" d="m298.9 206.2c-0.4-2.4 1.6-5.6 1.6-5.6 0 0 2 3.2 1.5 5.6-0.3 1.8-2.7 1.8-3.1 0z"/>
				</g>
			</g>
			<g id="&lt;Group&gt;">
				<g id="&lt;Group&gt;">
					<path id="&lt;Path&gt;" class="s0" d="m335.2 225c8.7 1.3 18 1.9 26.9 2.3 17.2 0.8 34.4 0.5 51.5-1.3 9.8-1.1 19.5-2.7 29.1-5 10.1-2.6 19.9-6.4 30.1-9 14.2-3.7 29.2-6.1 43.9-4.4 4.5 0.5 9.6 1.1 13.8 3.3 0.8 0.5 0.1 1.8-0.8 1.3-5.3-2.8-12.3-3.3-18.2-3.5-17.1-0.8-34.3 3-50.4 8.2-9.5 3.1-18.9 6-28.7 7.8-9.3 1.8-18.6 2.9-27.9 3.6-23.1 1.8-46.8 1.4-69.7-1.8-1-0.1-0.6-1.6 0.4-1.5z"/>
				</g>
				<g id="&lt;Group&gt;">
					<path id="&lt;Path&gt;" class="s0" d="m268.6 226.5c-8.5 1.2-17.1 1.9-25.7 2.3-16.9 0.8-34 0.7-50.9-1-9.4-1-18.7-2.4-27.9-4.4-10.2-2.3-19.8-6-29.8-8.8-14.9-4.2-30.7-7.1-46.3-5.6-4.7 0.4-10.1 1-14.4 3.3-0.8 0.4-1.6-0.9-0.7-1.3 5.2-2.8 11.9-3.4 17.6-3.7 16.1-1 32.3 2.3 47.7 6.9 9.8 2.9 19.3 6.3 29.3 8.4 9.6 2 19.3 3.3 29.1 4.1 23.6 2 48.2 1.7 71.6-1.6 0.9-0.1 1.3 1.3 0.4 1.4z"/>
				</g>
			</g>
		</g>
		<g id="&lt;Group&gt;">
			<g id="&lt;Group&gt;">
				<path id="&lt;Path&gt;" class="s0" d="m59.9 202.3c-0.8 4 4.2 7.6 8.2 9.8q0.8 0.4 1.4 0.8-0.6 0.3-1.3 0.7c-4.1 2.2-9.1 5.9-8.3 9.9-4.9-3.1-2.3-8 5.6-10.6-7.9-2.7-10.5-7.5-5.6-10.6z"/>
				<path id="&lt;Path&gt;" class="s0" d="m55.1 214.4c-2.4 0.5-5.7-1.5-5.7-1.5 0 0 3.3-2 5.7-1.6 1.8 0.4 1.8 2.8 0 3.1z"/>
			</g>
			<g id="&lt;Group&gt;">
				<path id="&lt;Path&gt;" class="s0" d="m537.8 212.9c8 2.6 10.5 7.5 5.6 10.6 0.8-4-4.2-7.7-8.2-9.9q-0.7-0.4-1.4-0.7 0.7-0.4 1.4-0.8c4-2.2 9-5.8 8.2-9.8 4.9 3.1 2.4 7.9-5.6 10.6z"/>
				<path id="&lt;Path&gt;" class="s0" d="m548.2 211.3c2.5-0.4 5.7 1.6 5.7 1.6 0 0-3.2 2-5.7 1.5-1.8-0.3-1.8-2.7 0-3.1z"/>
			</g>
		</g>
	</g>
</svg>