<svg xmlns="http://www.w3.org/2000/svg" version="1.2" viewBox="646.03 192.8 504.57 44.35">
	<title>decorative-lines-with-background</title>
	<style>
		.s0 { fill: #d6ad60 } 
	</style>
	<g id="line-7">
		<g id="&lt;Group&gt;">
			<g id="&lt;Group&gt;">
				<path id="&lt;Path&gt;" class="s0" d="m656.1 236c-2.9 1.9-7 1.5-9-1.6-2.9-4.3 0.5-9.6 5.4-9.8 1 0 2 0 2.9 0q7.8 0 15.6 0 29 0 57.9 0 35.7 0 71.4 0 28.8 0 57.6 0 7.5 0 15.1 0 1.4 0 2.8 0c8.2-0.1 15.8-3 21.9-8.5 0.9-0.8 2.1 0.5 1.3 1.3-3.2 2.8-6.7 5.1-10.7 6.7-5.4 2.1-10.9 2.3-16.5 2.3q-8 0-16 0-28.5 0-57 0-34.5 0-69.1 0-28.5 0-57 0-8.1 0-16.2 0c-1.2 0-2.4 0-3.6 0q-0.3 0-0.5 0c-2.6 0.2-4.7 2.1-4.5 4.9 0.3 3.7 4.4 5.1 7.3 3.1 1-0.6 1.9 1 0.9 1.6z"/>
			</g>
		</g>
		<g id="&lt;Group&gt;">
			<path id="&lt;Path&gt;" class="s0" d="m906.3 205.4c-1.8 4.4-4.6 8.2-8 11.3-3.3-3.1-6.1-6.9-8-11.3l8-12.6z"/>
			<g id="&lt;Group&gt;">
				<path id="&lt;Path&gt;" class="s0" d="m899 216.1c3.8 3.4 8.3 6 13.2 7.4 4.7 1.2 9.3 1.1 14 1.1q9.1 0 18.1 0 30.4 0 60.8 0 35.5 0 71.1 0 27.2 0 54.4 0 6.3 0 12.5 0c1.8 0 3.4 0.1 4.9 1.2 2.7 2 3.4 5.8 1.6 8.6-2.1 3.1-6.1 3.5-9 1.6-1-0.6-0.1-2.2 0.9-1.6 3.1 2.1 7.5 0.3 7.3-3.7-0.1-2.5-2.1-4.2-4.5-4.3-8.5-0.5-17.2 0-25.8 0q-30 0-59.9 0-34.5 0-69 0-26.8 0-53.6 0-6.6 0-13.3 0c-9.3 0-18-2.7-25-9-0.9-0.8 0.4-2.1 1.3-1.3z"/>
			</g>
		</g>
	</g>
</svg>