<svg xmlns="http://www.w3.org/2000/svg" version="1.2" viewBox="646.04 477.7 504.58 56.9">
	<title>decorative-lines-with-background</title>
	<style>
		.s0 { fill: #d6ad60 } 
	</style>
	<g id="line-10">
		<g id="&lt;Group&gt;">
			<path id="&lt;Path&gt;" class="s0" d="m898.9 490.7c-0.2 0.2-5.2 4.5-15.1 9.5-12.7 6.5-43.9 13.1-80.5 13.1-21.5 0-44.8-2.3-67.4-8.2-9.3-2.4-18-4.1-25.9-5.1-21.4-2.8-37.8-0.5-48.7 6.7-4.1 4.2-3.4 17.3-3.1 21.2 0.1 1.4-0.3 2.7-1 3.9-1.1 1.7-3 2.8-5.1 2.8-2 0-3.9-1.1-5.1-2.8-0.8-1.3-1.1-2.8-0.9-4.2 0.5-4.2 3-14.8 14.1-22.3q0.1 0 0.1 0c11.2-7.5 28-9.9 49.9-7.1 8 1 16.8 2.8 26.2 5.2 60.4 15.7 126.6 5.4 146.6-4.8 9.7-4.9 14.7-9.2 14.7-9.2 0.4-0.4 1-0.3 1.3 0 0.3 0.4 0.3 1-0.1 1.3z"/>
			<path id="&lt;Path&gt;" class="s0" d="m898.9 490.7c-0.1 0.1-4 3.5-11.8 7.4-9.9 5.1-34.2 10.2-62.7 10.2-16.7 0-34.9-1.8-52.5-6.3-7.2-1.9-14-3.3-20.1-4-16.6-2.2-29.3-0.4-37.7 5.2-3.1 3.2-2.6 13.3-2.4 16.3 0.1 1.1-0.2 2.2-0.8 3.1-0.9 1.4-2.4 2.3-4.1 2.3-1.7 0-3.2-0.9-4.1-2.3-0.7-1-0.9-2.2-0.8-3.4 0.4-3.3 2.3-11.6 11.1-17.5q0 0 0 0c8.8-5.9 21.9-7.7 39-5.5 6.2 0.8 13.1 2.1 20.4 4 47 12.3 98.4 4.3 113.9-3.7 7.5-3.8 11.4-7.1 11.4-7.2 0.4-0.3 1-0.2 1.3 0.1 0.3 0.4 0.3 1-0.1 1.3z"/>
		</g>
		<path id="&lt;Path&gt;" class="s0" d="m899 490.6c-0.1 0.2-0.4 0.3-0.7 0.3-0.3 0-0.5-0.1-0.7-0.3-3-4-4.1-7.9-2.9-10.4 0.6-1.5 1.9-2.3 3.5-2.5q0.1 0 0.2 0c1.7 0.2 3 1 3.6 2.5 1.1 2.5 0 6.4-3 10.4z"/>
		<g id="&lt;Group&gt;">
			<path id="&lt;Path&gt;" class="s0" d="m1149.6 531.7c-1.1 1.8-3 2.9-5.1 2.9q0 0 0 0c-2 0-3.9-1.1-5.1-2.8-0.7-1.2-1-2.5-0.9-3.9 0.3-3.9 0.9-17-3.2-21.2-10.9-7.2-27.2-9.5-48.6-6.7-7.9 1-16.6 2.7-26 5.1-22.5 5.9-45.9 8.2-67.4 8.2-36.5 0-67.7-6.6-80.5-13.1-9.9-5-14.9-9.3-15.1-9.5-0.3-0.3-0.4-0.9-0.1-1.3 0.4-0.3 0.9-0.4 1.3 0 0.1 0 5.1 4.3 14.7 9.2 20.1 10.2 86.2 20.5 146.7 4.8 9.4-2.4 18.2-4.2 26.1-5.2 21.9-2.8 38.7-0.4 50 7.1q0 0 0 0c11.2 7.5 13.6 18.1 14.2 22.3 0.1 1.4-0.2 2.9-1 4.1z"/>
			<path id="&lt;Path&gt;" class="s0" d="m1094 522.6c-0.9 1.4-2.5 2.3-4.2 2.3-1.6 0-3.2-0.9-4.1-2.3-0.6-0.9-0.8-2-0.7-3.1 0.2-3 0.7-13.1-2.5-16.3-8.4-5.6-21-7.4-37.6-5.2-6.2 0.7-12.9 2.1-20.2 4-17.5 4.5-35.7 6.3-52.5 6.3-28.4 0-52.8-5.1-62.7-10.2-7.7-3.9-11.6-7.3-11.8-7.4-0.3-0.3-0.4-0.9-0.1-1.3 0.4-0.3 0.9-0.4 1.3-0.1 0.1 0.1 3.9 3.4 11.4 7.2 15.6 8 67 16 114 3.7 7.3-1.9 14.1-3.2 20.3-4 17.1-2.2 30.2-0.4 39 5.5q0 0 0 0c8.8 5.9 10.7 14.2 11.1 17.5 0.2 1.2-0.1 2.4-0.7 3.4z"/>
		</g>
	</g>
</svg>