<svg xmlns="http://www.w3.org/2000/svg" version="1.2" viewBox="646 586 504.6 34.4">
	<title>decorative-lines-with-background</title>
	<style>
		.s0 { fill: #d6ad60 } 
	</style>
	<g id="line-11">
		<g id="&lt;Group&gt;">
			<g id="&lt;Group&gt;">
				<g id="&lt;Group&gt;">
					<path id="&lt;Compound Path&gt;" fill-rule="evenodd" class="s0" d="m655.2 620.4c-4.1 0-8.5-2.9-8.8-3-0.2-0.2-0.4-0.4-0.4-0.8 0-0.3 0.2-0.5 0.4-0.7 0.3-0.2 5.9-3.7 10.3-2.9 2 0.4 3 2.1 3 3.6 0 1.6-1 3.3-3 3.7q-0.7 0.1-1.5 0.1zm-6.4-3.8c1.7 1 5 2.4 7.5 1.9 1.2-0.2 1.6-1.1 1.6-1.9 0-0.7-0.4-1.6-1.6-1.8-2.5-0.5-5.8 0.9-7.5 1.8zm7.7 2.8z"/>
				</g>
				<g id="&lt;Group&gt;">
					<path id="&lt;Compound Path&gt;" fill-rule="evenodd" class="s0" d="m1141.4 620.4q-0.7 0-1.4-0.1c-2.1-0.4-3-2.1-3-3.7 0-1.5 0.9-3.2 3-3.6 4.3-0.8 10 2.7 10.2 2.9 0.3 0.2 0.4 0.4 0.4 0.7 0 0.4-0.1 0.6-0.4 0.8-0.2 0.1-4.7 3-8.8 3zm-1.1-1.9c2.6 0.5 5.8-0.9 7.6-1.9-1.8-0.9-5-2.3-7.6-1.8-1.1 0.2-1.5 1.1-1.5 1.8 0 0.8 0.4 1.7 1.5 1.9z"/>
				</g>
				<g id="&lt;Group&gt;">
					<path id="&lt;Path&gt;" class="s0" d="m1137.9 617.5h-479.1c-0.5 0-0.9-0.4-0.9-0.9 0-0.5 0.4-0.9 0.9-0.9h479.1c0.5 0 0.9 0.4 0.9 0.9 0 0.5-0.4 0.9-0.9 0.9z"/>
				</g>
			</g>
		</g>
		<g id="&lt;Group&gt;">
			<g id="&lt;Group&gt;">
				<g id="&lt;Group&gt;">
					<path id="&lt;Path&gt;" class="s0" d="m917 617.6c-1.5 0-3-0.3-4.4-0.8l-0.4-0.1c-2.8-1-6.3-3.2-9.3-5.9-7.8-7.1-14.9-4.5-14.9-4.5q-0.1 0-0.1 0.1c-2.8 0.6-4.4 3.4-3.8 6.2 0.5 2 2.6 3.3 4.7 2.8 0.8-0.1 1.4-0.7 1.8-1.4 0.6-1.1 0.6-2.2 0-3-0.6-0.7-1.4-1-2.2-0.8-0.5 0.2-1-0.1-1.1-0.6-0.2-0.5 0.1-1 0.6-1.1 1.5-0.4 3.1 0.2 4.1 1.4 1 1.3 1.1 3.2 0.2 4.9-0.6 1.2-1.7 2.1-3 2.4-3 0.7-6.1-1.2-6.8-4.2-0.9-3.7 1.3-7.4 5-8.4 0.8-0.3 8.4-2.7 16.7 4.9 2.8 2.5 6.2 4.6 8.7 5.5l0.4 0.1c3.4 1.3 7.2 0.8 10.2-1.4 2.8-2.1 4.3-5.2 4.1-8.7q0-0.4-0.1-0.8c-0.3-2.4-1.6-4.5-3.7-5.9-3-2.1-6.2-2.4-8.8-0.8-2.3 1.4-3.6 4.1-3.3 6.8 0.2 1.4 1 2.7 2.2 3.6 1.9 1.2 3.8 1.4 5.4 0.5 1.3-0.8 2.1-2.4 1.9-4.1-0.1-0.8-0.5-1.5-1.2-2-0.6-0.5-1.4-0.8-2.2-0.6-0.6 0-1-0.3-1.1-0.8 0-0.5 0.3-1 0.8-1 1.3-0.2 2.6 0.1 3.6 0.9 1.1 0.8 1.7 2 1.9 3.3 0.3 2.3-0.8 4.6-2.8 5.8-2.2 1.3-4.9 1.1-7.3-0.6-1.6-1.1-2.7-2.9-3-4.8-0.4-3.4 1.2-6.8 4.1-8.5 3.2-2 7.2-1.7 10.8 0.8 2.6 1.7 4.2 4.3 4.5 7.2q0.1 0.5 0.1 0.9c0.2 4.1-1.5 7.8-4.9 10.2-2.2 1.7-4.8 2.5-7.4 2.5z"/>
				</g>
				<g id="&lt;Group&gt;">
					<path id="&lt;Path&gt;" class="s0" d="m879.7 617.6c-2.7 0-5.3-0.8-7.5-2.5-3.3-2.4-5.1-6.1-4.9-10.2q0.1-0.4 0.1-0.9c0.4-2.9 2-5.5 4.5-7.2 3.6-2.5 7.6-2.8 10.8-0.8 2.9 1.7 4.5 5.1 4.1 8.5-0.2 1.9-1.3 3.7-2.9 4.8-2.5 1.7-5.2 1.9-7.3 0.6-2-1.2-3.1-3.5-2.8-5.8 0.1-1.3 0.8-2.5 1.8-3.3 1.1-0.8 2.3-1.1 3.6-0.9 0.5 0 0.9 0.5 0.8 1-0.1 0.5-0.5 0.8-1 0.8-0.8-0.2-1.6 0.1-2.3 0.6-0.6 0.5-1 1.2-1.2 2-0.2 1.7 0.6 3.3 2 4.1 1.5 0.9 3.5 0.7 5.3-0.5 1.2-0.9 2-2.2 2.2-3.6 0.4-2.7-0.9-5.4-3.2-6.8-2.6-1.6-5.8-1.3-8.8 0.8-2.2 1.4-3.5 3.5-3.8 5.9q0 0.4-0.1 0.8c-0.2 3.5 1.3 6.6 4.2 8.7 2.9 2.2 6.7 2.7 10.1 1.4l0.4-0.1c2.6-0.9 5.9-3 8.7-5.5 8.3-7.6 16-5.2 16.8-4.9 3.6 1 5.9 4.7 5 8.4-0.8 3-3.9 4.9-6.9 4.2-1.2-0.3-2.3-1.2-3-2.4-0.9-1.7-0.8-3.6 0.3-4.9 0.9-1.2 2.5-1.8 4-1.4 0.5 0.1 0.8 0.6 0.7 1.1-0.1 0.5-0.6 0.8-1.1 0.6-0.8-0.2-1.7 0.1-2.2 0.8-0.6 0.8-0.7 1.9-0.1 3 0.4 0.7 1.1 1.3 1.8 1.4 2.1 0.5 4.2-0.8 4.7-2.8 0.7-2.8-1-5.6-3.7-6.2q-0.1-0.1-0.1-0.1c-0.3-0.1-7.2-2.6-15 4.5-3 2.7-6.5 4.9-9.3 5.9l-0.4 0.1c-1.4 0.5-2.8 0.8-4.3 0.8z"/>
				</g>
			</g>
			<g id="&lt;Group&gt;">
				<path id="&lt;Compound Path&gt;" fill-rule="evenodd" class="s0" d="m898.3 602.5c-0.3 0-0.7-0.2-0.8-0.5-0.1-0.3-2.8-7.1-2.2-12.3 0.3-2.5 1.8-3.7 3-3.7 1.3 0 2.7 1.2 3 3.7 0.7 5.2-2 12-2.1 12.3-0.2 0.3-0.5 0.5-0.9 0.5zm0-14.7c-0.5 0-1 0.7-1.2 2.1q0 0 0 0c-0.4 2.9 0.5 6.6 1.2 8.9 0.7-2.3 1.6-6 1.2-8.9-0.1-1.4-0.7-2.1-1.2-2.1zm-2.1 2z"/>
			</g>
			<g id="&lt;Group&gt;">
				<g id="&lt;Group&gt;">
					<path id="&lt;Compound Path&gt;" fill-rule="evenodd" class="s0" d="m903.8 601.7q-0.4 0-0.6-0.2c-0.3-0.3-0.4-0.6-0.3-0.9 0.1-0.3 0.8-3.6 2.8-4.9 1-0.7 2.1-0.6 2.9 0.2 0.8 0.8 0.9 2 0.3 3-1.3 2-4.6 2.7-4.9 2.8q-0.1 0-0.2 0zm1.4-2.3c0.8-0.3 1.8-0.9 2.2-1.5 0.2-0.4 0-0.6 0-0.7-0.1-0.1-0.4-0.2-0.7 0-0.7 0.4-1.2 1.4-1.5 2.2z"/>
				</g>
				<g id="&lt;Group&gt;">
					<path id="&lt;Compound Path&gt;" fill-rule="evenodd" class="s0" d="m892.9 601.7q-0.1 0-0.2 0c-0.4-0.1-3.6-0.8-5-2.8-0.6-1-0.5-2.2 0.3-3 0.8-0.8 2-0.9 2.9-0.2 2 1.3 2.8 4.6 2.8 4.9 0.1 0.3 0 0.6-0.2 0.9q-0.3 0.2-0.6 0.2zm-3.3-4.6c-0.1 0-0.2 0-0.3 0.1-0.1 0.1-0.3 0.3-0.1 0.7 0.5 0.7 1.4 1.2 2.3 1.5-0.4-0.8-0.9-1.8-1.6-2.2q-0.1-0.1-0.3-0.1z"/>
				</g>
			</g>
		</g>
	</g>
</svg>